<?xml version="1.0" standalone="no"?>
<!DOCTYPE svg PUBLIC "-//W3C//DTD SVG 20010904//EN"
 "http://www.w3.org/TR/2001/REC-SVG-20010904/DTD/svg10.dtd">
<svg version="1.0" xmlns="http://www.w3.org/2000/svg"
 width="512.000000pt" height="512.000000pt" viewBox="0 0 512.000000 512.000000"
 preserveAspectRatio="xMidYMid meet">
<metadata>
Created by potrace 1.14, written by Peter Selinger 2001-2017
</metadata>
<g transform="translate(0.000000,512.000000) scale(0.100000,-0.100000)"
fill="#000000" stroke="none">
<path d="M1603 4193 l-953 -544 0 -1087 0 -1087 176 -100 c96 -55 179 -101
185 -103 5 -2 9 409 9 1085 l1 1088 770 438 770 438 772 -440 772 -440 3 -874
c2 -823 1 -875 -15 -889 -10 -8 -121 -73 -248 -145 -126 -72 -467 -265 -757
-431 l-528 -300 -407 232 -408 233 -3 875 -2 874 398 227 c219 124 405 229
413 232 9 3 186 -91 420 -223 l404 -229 3 -460 2 -460 -411 -232 -411 -232
-44 26 -44 26 0 454 0 454 224 128 c124 70 222 131 218 135 -14 13 -342 198
-352 198 -6 0 -109 -57 -230 -126 l-220 -126 2 -665 3 -666 223 -127 223 -128
590 336 589 336 -2 669 -3 669 -587 335 -587 334 -588 -335 -588 -334 0 -1087
0 -1087 575 -330 c316 -182 582 -333 591 -335 10 -3 426 229 968 538 l951 543
0 1087 0 1088 -955 545 c-525 300 -956 546 -957 545 -2 -1 -432 -246 -955
-546z"/>
</g>
</svg>
