<?xml version="1.0" standalone="no"?>
<!DOCTYPE svg PUBLIC "-//W3C//DTD SVG 20010904//EN"
 "http://www.w3.org/TR/2001/REC-SVG-20010904/DTD/svg10.dtd">
<svg version="1.0" xmlns="http://www.w3.org/2000/svg"
 width="512.000000pt" height="512.000000pt" viewBox="0 0 512.000000 512.000000"
 preserveAspectRatio="xMidYMid meet">
<metadata>
Created by potrace 1.14, written by Peter Selinger 2001-2017
</metadata>
<g transform="translate(0.000000,512.000000) scale(0.100000,-0.100000)"
fill="#000000" stroke="none">
<path d="M2455 4681 c-55 -32 -417 -239 -805 -460 -388 -222 -763 -436 -833
-477 -71 -41 -133 -74 -137 -74 -5 0 -14 -8 -19 -19 -7 -11 -10 -402 -10
-1097 l0 -1080 180 -103 c99 -56 183 -101 185 -98 3 3 4 283 4 623 -2 692 -2
1486 -1 1524 1 14 9 30 20 35 11 6 48 26 83 46 35 20 86 49 113 64 28 16 337
192 688 392 l638 364 682 -389 c375 -214 709 -404 742 -422 56 -31 103 -59
115 -68 3 -2 5 -399 5 -882 l0 -877 -375 -214 c-206 -118 -384 -219 -395 -225
-42 -24 -168 -95 -410 -234 -137 -78 -274 -156 -303 -172 -29 -17 -60 -28 -70
-26 -16 5 -791 444 -802 455 -3 2 -5 396 -5 875 l0 870 25 17 c14 10 68 42
120 72 52 30 104 59 115 66 11 7 26 15 34 19 8 4 74 41 145 82 165 94 256 146
324 184 l53 30 212 -120 c117 -66 235 -132 262 -147 28 -15 55 -31 60 -35 6
-4 42 -25 80 -46 39 -21 99 -54 135 -75 l65 -37 1 -459 1 -460 -116 -66 c-64
-36 -248 -140 -410 -232 l-293 -166 -44 26 -44 26 0 167 c-1 151 -1 595 0 699
l0 42 208 117 c273 154 251 137 205 165 -21 12 -47 28 -58 34 -11 6 -72 42
-136 78 -64 37 -122 67 -128 67 -7 0 -78 -37 -157 -82 -80 -46 -169 -96 -198
-113 -29 -16 -63 -37 -76 -45 l-23 -16 1 -649 c1 -763 0 -685 10 -685 5 0 106
-56 225 -125 l217 -124 283 161 c155 88 420 239 588 335 l306 175 -1 670 -1
670 -75 44 c-41 25 -88 51 -105 60 -16 8 -46 24 -65 35 -48 29 -365 210 -420
241 -25 14 -94 53 -155 88 -60 34 -130 74 -155 88 -25 13 -49 28 -55 32 -5 4
-41 24 -78 44 l-68 37 -42 -24 c-23 -14 -60 -35 -82 -47 -22 -12 -155 -88
-295 -168 -140 -80 -273 -155 -295 -168 -22 -12 -134 -76 -250 -142 l-210
-119 0 -1088 0 -1089 580 -332 c319 -183 587 -333 595 -334 8 0 41 16 73 35
32 19 60 35 62 35 2 0 36 19 77 43 40 24 93 55 118 69 25 14 158 89 295 168
138 78 270 154 295 168 25 14 88 50 140 80 52 30 113 65 135 78 22 12 164 93
315 179 151 86 295 169 320 183 25 14 53 30 62 36 15 9 17 88 15 1099 l-2
1090 -945 540 c-520 296 -949 541 -955 542 -5 2 -55 -22 -110 -54z"/>
</g>
</svg>
